<svg id="Laag_1" data-name="Laag 1" xmlns="http://www.w3.org/2000/svg" xmlns:xlink="http://www.w3.org/1999/xlink" viewBox="0 0 400 120"><defs><style>.cls-1{fill:none;}.cls-2{clip-path:url(#clip-path);}.cls-3{fill:#333e48;}.cls-4{fill:#941b80;}</style><clipPath id="clip-path"><rect class="cls-1" y="1" width="400" height="115.97"/></clipPath></defs><title>Tekengebied 1</title><g class="cls-2"><path class="cls-3" d="M223.09,68.36h-14c.53-4.58,3.36-7.56,7.4-7.56s6.72,2.82,6.56,7.56m9.69,2.21c0-9.39-4.89-16.94-16-16.94-11.37,0-17.78,8.55-17.78,20.15,0,13.36,6.72,19.39,18.78,19.39a37.71,37.71,0,0,0,13.59-2.44l-.92-7.56a27.18,27.18,0,0,1-11.07,2.37c-7,0-10.53-3.43-10.46-10.53h23.51a31.67,31.67,0,0,0,.31-4.43m-49-16.18a107.6,107.6,0,0,0-15.8.69v6.11c2.21.15,4.81.46,6.64.76V92.4h9.69V76.91c0-10.53,3.51-15.11,10.53-13.66l.46-9.62c-6.56-.53-10.23,3.66-12.06,8.47h-.15a50.37,50.37,0,0,0,.69-7.71M151.58,72.56c0,6.64-3.05,12.52-8.17,12.52-4.43,0-6.49-3.59-6.49-10.69,0-9.39,4-12.82,9.54-12.82a21.44,21.44,0,0,1,5.11.53Zm9.69,21.07V54.93a82.28,82.28,0,0,0-13.89-1.15c-13.36,0-20.68,8.85-20.68,21.68,0,11.52,5,17.71,14,17.71a12,12,0,0,0,11.22-7h.15a27.35,27.35,0,0,0-.38,5.5v2c0,6.95-3.74,9.46-10.91,9.46a33.78,33.78,0,0,1-11.3-2.21l-.76,9.08a47.67,47.67,0,0,0,11.6,1.45c16.79,0,20.91-8.93,20.91-17.78m-55-17.1c0,4.58-3.28,9.16-8.09,9.16-2.82,0-4.5-1.6-4.5-4,0-3.05,2.29-6,12.59-6Zm16.41,15.27V85.69c-2.21-.15-4.81-.46-6.64-.76V66.84c0-8.32-3.43-13.2-15.65-13.2A41.46,41.46,0,0,0,86.78,56l.84,8.17a24.88,24.88,0,0,1,11.22-3c5.5,0,7.4,2.06,7.4,6v2.06c-12.9,0-21.91,4.81-21.91,13.89,0,6.11,4,10,10.84,10,5.65,0,10.3-3,12.14-7.25l.08.08a44.27,44.27,0,0,0-.38,6.49,106.46,106.46,0,0,0,15.65-.69m-44.35.38V84.31a18.69,18.69,0,0,1-4.73.61c-3.36,0-4.5-1.37-4.5-6.26V62h9.23V54.47H69.07V40.2L59.3,42.79V54.47H52.82V62h6.56V81.26c0,8.85,2.59,11.91,11,11.91a33.74,33.74,0,0,0,7.94-1M46.63,54.39a111.66,111.66,0,0,0-16.33.69v6.11c2.21.15,4.81.46,6.64.76V92.4h9.69Zm1.22-10.76a6.07,6.07,0,1,0-6.11,6,6,6,0,0,0,6.11-6m-22.21,37c0-12.29-15.57-9.54-15.57-15.72,0-2.37,1.83-3.89,5.65-3.89a26.46,26.46,0,0,1,7,1l.31-7.71a43.64,43.64,0,0,0-6.95-.69C5.42,53.63,0,59.13,0,65.77c0,12.9,15.34,9.08,15.34,15.8,0,2.52-2.44,4-6.18,4A33.47,33.47,0,0,1,1,84.47l-.23,8a52,52,0,0,0,7.94.69c10.38,0,16.94-5,16.94-12.52"/><path class="cls-4" d="M392.33,107a6.77,6.77,0,0,1,1.42-.12c2.61,0,4.06,1.46,4,4,0,2.9-1.61,4.4-4.32,4.39a7.74,7.74,0,0,1-1.15-.05Zm-2.08,9.72a23.15,23.15,0,0,0,2.81.15,7.62,7.62,0,0,0,5.17-1.56A5.89,5.89,0,0,0,400,110.8a5.09,5.09,0,0,0-1.8-4.2,6.91,6.91,0,0,0-4.64-1.32,21,21,0,0,0-3.32.25Zm-7,0h2.08V105.36h-2.08ZM378.36,110h-4.3v-2.95h4.56v-1.71H372v11.42h6.89v-1.71h-4.81v-3.35h4.3ZM358,105.36v11.42h2.08v-5H365v5H367V105.36H365v4.57h-4.83v-4.57ZM346,107a6.77,6.77,0,0,1,1.42-.12c2.61,0,4.06,1.46,4,4,0,2.9-1.61,4.4-4.32,4.39a7.74,7.74,0,0,1-1.15-.05Zm-2.08,9.72a23.15,23.15,0,0,0,2.81.15,7.62,7.62,0,0,0,5.17-1.56,5.89,5.89,0,0,0,1.78-4.54,5.09,5.09,0,0,0-1.8-4.2,6.91,6.91,0,0,0-4.64-1.32,21,21,0,0,0-3.32.25Zm-12.07,0V112.7c0-1.88,0-3.39-.12-4.86l.07,0a39.38,39.38,0,0,0,2,3.93l3,5H339V105.36h-1.93v4a46.32,46.32,0,0,0,.19,4.73l0,0a33.88,33.88,0,0,0-1.95-3.83l-2.95-4.9h-2.39v11.42Zm-11.62-1.49c-2,0-3.15-1.91-3.15-4.18s1.08-4.25,3.17-4.25,3.15,2,3.15,4.18c0,2.39-1.14,4.25-3.15,4.25Zm-.07,1.68c3.12,0,5.44-2.18,5.44-6,0-3.25-2-5.78-5.28-5.78s-5.44,2.49-5.44,6c0,3.34,2,5.81,5.27,5.81ZM303,116.78h8.62v-1.73h-5.84V115l5.76-8.42v-1.22h-8v1.73h5.34v.05L303,115.63ZM298.86,110h-4.3v-2.95h4.56v-1.71h-6.64v11.42h6.89v-1.71h-4.81v-3.35h4.3Zm-11.06.46h-4v1.64h2V115a4.35,4.35,0,0,1-1.58.22,3.76,3.76,0,0,1-4-4.13,3.82,3.82,0,0,1,4.15-4.1,5.9,5.9,0,0,1,2.59.49l.46-1.68a7.59,7.59,0,0,0-3-.54c-3.78,0-6.33,2.3-6.35,5.93a5.73,5.73,0,0,0,1.59,4.2,6.2,6.2,0,0,0,4.49,1.52,11.3,11.3,0,0,0,3.66-.64Zm-26.93,6.3V112.7c0-1.88,0-3.39-.12-4.86l.07,0a39.38,39.38,0,0,0,2,3.93l3,5H268V105.36h-1.93v4a46,46,0,0,0,.19,4.73l0,0a34.06,34.06,0,0,0-1.95-3.83l-2.95-4.9h-2.39v11.42ZM254.08,110h-4.3v-2.95h4.56v-1.71h-6.64v11.42h6.89v-1.71h-4.81v-3.35h4.3Zm-17,0h-4.3v-2.95h4.56v-1.71h-6.64v11.42h6.89v-1.71h-4.81v-3.35h4.3Zm-20.31-4.66v11.42h2.08v-5h4.83v5h2.08V105.36h-2.08v4.57h-4.83v-4.57Zm-4.66,9.43a6.34,6.34,0,0,1-2.27.41c-2.52,0-4-1.59-4-4.1,0-2.74,1.68-4.2,4-4.2a5.62,5.62,0,0,1,2.24.44l.44-1.66a6.52,6.52,0,0,0-2.76-.49,5.74,5.74,0,0,0-6.11,6c0,3.47,2.2,5.74,5.83,5.74a7.55,7.55,0,0,0,3-.51Zm-14.74,2V112l3.79-6.6h-2.35l-1.37,2.93c-.39.83-.71,1.54-1,2.27h0c-.32-.78-.61-1.42-1-2.27l-1.35-2.93h-2.39l3.61,6.66v4.76Zm-16.51-.54a6.81,6.81,0,0,0,3.1.71c2.93,0,4.32-1.58,4.32-3.42,0-1.63-.95-2.62-2.93-3.39-1.52-.58-2.19-1-2.19-1.86,0-.68.56-1.37,1.88-1.37a5,5,0,0,1,2.29.54l.49-1.69a6.2,6.2,0,0,0-2.73-.56c-2.49,0-4,1.41-4,3.29,0,1.63,1.2,2.64,3.1,3.3,1.44.52,2,1,2,1.9s-.75,1.56-2.07,1.56a5.72,5.72,0,0,1-2.76-.73ZM171.46,107a5.75,5.75,0,0,1,1.2-.1c1.44,0,2.32.68,2.32,1.93s-.95,2.1-2.51,2.1a3.47,3.47,0,0,1-1-.1Zm-2.07,9.79h2.07v-4.32a4.55,4.55,0,0,0,1,.08,5.07,5.07,0,0,0,3.61-1.24,3.47,3.47,0,0,0,1-2.57,3.22,3.22,0,0,0-1.12-2.52,5.11,5.11,0,0,0-3.35-.93,18.33,18.33,0,0,0-3.18.24Z"/><path class="cls-4" d="M184.33,18.42a.4.4,0,1,0-.4.4.4.4,0,0,0,.4-.4m2,1.5a1.73,1.73,0,0,1-.63.95,4.27,4.27,0,0,0-1.24-.62,3.8,3.8,0,0,0-1-.14,2.75,2.75,0,0,0-1.2.24l-.46.23h.38a3.87,3.87,0,0,1,.88.07,3.31,3.31,0,0,1,1.28.81,4.68,4.68,0,0,1-.79.07,5.09,5.09,0,0,1-1.17-.14A4.52,4.52,0,0,1,180,20.11l-.33.1a8.47,8.47,0,0,0-2,.94l-.37.26a4.81,4.81,0,0,0-2,3.76c-.05,1.24.82,2.5,2,3.75v4c-2.58-2.28-5.09-4.68-5-7.87a8.36,8.36,0,0,1,5-7.13l.37-.18a11.83,11.83,0,0,1,2-.7l.37-.08a12.12,12.12,0,0,1,1.45-.22,4.57,4.57,0,0,1,.72-.06h.27a4.72,4.72,0,0,1,.9.12c1.89.45,3.18,1.84,2.88,3.1M181,11.1a2.34,2.34,0,0,1-1.24,2.07l-.1,0v3.47a11.93,11.93,0,0,0-2,.68V13.21l-.12,0A2.35,2.35,0,1,1,181,11.1M177.7,21.58a7.07,7.07,0,0,1,1.37-.73c.21-.09.43-.19.63-.25h0V42.27c-.56.46-1.23.93-2,1.45h0V33.24h0V28.77h0Zm40.89,2.17a1.11,1.11,0,0,0-.69-.52L204,19.7a1.14,1.14,0,0,0-.27,0,1.11,1.11,0,0,0-.56.15l-12.85,7.42V12.4a1.13,1.13,0,0,0-.31-.78L180,1.34a1.11,1.11,0,0,0-1.59,0l-10,10.29a1.12,1.12,0,0,0-.31.78V27.23h0q0,9,0,18.07a1.11,1.11,0,0,0,1.11,1.11l5.63,0a17.36,17.36,0,0,1,2.52-2l.28-.19h0l.08-.06.21-.14a18.54,18.54,0,0,0,1.79-1.28l.37-.3a4.48,4.48,0,0,0,2-3.55c0-1.12-.84-2.29-2-3.46v-4c2.48,2.19,4.92,4.48,4.91,7.46a7.11,7.11,0,0,1-2.53,5.34,20.63,20.63,0,0,1-2.38,1.85l-.37.25-.14.1,0,0c7.2,0,14.4,0,21.61,0h0a1.11,1.11,0,0,0,.55-.15c4.2-2.42,8.39-4.77,12.59-7.2a1.11,1.11,0,0,0,.51-.66l3.9-13.82a1.11,1.11,0,0,0-.11-.86"/></g></svg>